<mxfile host="app.diagrams.net" modified="2023-05-22T00:31:00.393Z" agent="Mozilla/5.0 (Windows NT 10.0; Win64; x64) AppleWebKit/537.36 (KHTML, like Gecko) Chrome/113.0.0.0 Safari/537.36" version="21.3.2" etag="Vczzj4RX8QllkouE05_r" type="github">
  <diagram name="Page-1" id="EmkuD5yjH1dAO-7P8AT_">
    <mxGraphModel>
      <root>
        <mxCell id="0" />
        <mxCell id="1" parent="0" />
      </root>
    </mxGraphModel>
  </diagram>
</mxfile>
